<?xml version="1.0" standalone="no"?><svg xmlns:xlink="http://www.w3.org/1999/xlink" xmlns="http://www.w3.org/2000/svg" viewBox="0 0 1400 489.99483394833953" preserveAspectRatio="xMaxYMax slice"><g transform="scale(1.2915129151291513)"><rect x="0" y="0" width="1084" height="379.40000000000003" fill="#ffffff"/><path d="M 542 108.4 A 54.2 54.2 0 0 1  596.2 54.2 L 542 108.4 A 54.2 54.2 0 0 0 596.2 54.2" fill="#bcebf5"/><path d="M 704.6 108.4 A 54.2 54.2 0 0 1  758.8000000000001 54.2 L 704.6 108.4 A 54.2 54.2 0 0 0 758.8000000000001 54.2" fill="#bcebf5"/><path d="M 162.6 162.60000000000002 A 54.2 54.2 0 0 1  216.8 108.4 L 162.6 162.60000000000002 A 54.2 54.2 0 0 0 216.8 108.4" fill="#78d7ea"/><path d="M 271 162.60000000000002 A 54.2 54.2 0 0 1  325.2 108.4 L 271 162.60000000000002 A 54.2 54.2 0 0 0 325.2 108.4" fill="#73d6e9"/><g transform="translate(379.4,108.4) scale(2.71) rotate(0)"><path d="M10 0H20L0 20V10L10 0Z" fill="#82daec"/><path d="M20 10V20H10L20 10Z" fill="#82daec"/></g><path d="M 487.8 162.60000000000002 A 54.2 54.2 0 0 1  542 108.4 L 487.8 162.60000000000002 A 54.2 54.2 0 0 0 542 108.4" fill="#f99bee"/><rect x="542" y="108.4" width="54.2" height="54.2" fill="#feedfc"/><g transform="translate(758.8,108.4) scale(2.71) rotate(0)"><path d="M10 0H20V10L10 20H0V10L10 0Z" fill="#32c3df"/></g><rect x="867.2" y="108.4" width="54.2" height="54.2" fill="#ffffff"/><g transform="translate(867.2,108.4) scale(1.355) rotate(0)"><path d="M10 0H20L0 20V10L10 0Z" fill="#6cd4e8"/><path d="M20 10V20H10L20 10Z" fill="#6cd4e8"/></g><rect x="867.2" y="135.5" width="27.1" height="27.1" fill="#f88aec"/><g transform="translate(894.3,135.5) scale(1.355) rotate(0)"><path d="M10 0H20V10L10 20H0V10L10 0Z" fill="#58cee5"/></g><g transform="translate(271,162.6) scale(2.71) rotate(0)"><path d="M10 0H20V10L10 20H0V10L10 0Z" fill="#fef3fd"/></g><g transform="translate(325.2,162.6) scale(2.71) rotate(0)"><path d="M10 0H20V10L10 20H0V10L10 0Z" fill="#d2f2f8"/></g><path d="M 379.4 216.8 A 54.2 54.2 0 0 1  433.59999999999997 162.6 L 433.59999999999997 216.8" fill="#f772e8"/><path d="M 433.6 162.6 A 54.2 54.2 0 0 1  487.8 216.8 L 433.6 162.6 A 54.2 54.2 0 0 0 487.8 216.8" fill="#f886eb"/><rect x="487.8" y="162.6" width="54.2" height="54.2" fill="#e6f8fb"/><rect x="542" y="162.6" width="54.2" height="54.2" fill="#e8f8fb"/><path d="M 596.2 216.8 A 54.2 54.2 0 0 1  650.4000000000001 162.6 L 596.2 216.8 A 54.2 54.2 0 0 0 650.4000000000001 162.6" fill="#fddcf9"/><path d="M 650.4 162.6 A 54.2 54.2 0 0 1 704.6 216.8 L 650.4 216.8" fill="#faa3f0"/><g transform="translate(704.6,162.6) scale(2.71) rotate(0)"><path d="M10 0H20V10L10 20H0V10L10 0Z" fill="#f556e3"/></g><rect x="758.8000000000001" y="162.60000000000002" width="54.2" height="54.2" fill="#ffffff"/><g transform="translate(758.8,162.6) scale(1.355) rotate(0)"><path d="M10 0H20V10L10 20H0V10L10 0Z" fill="#a3e4f1"/></g><g transform="translate(758.8,189.7) scale(1.355) rotate(0)"><path d="M10 0H20L0 20V10L10 0Z" fill="#f77fea"/><path d="M20 10V20H10L20 10Z" fill="#f77fea"/></g><path d="M 785.9 189.7 A 27.1 27.1 0 0 1  813 216.79999999999998 L 785.9 189.7 A 27.1 27.1 0 0 0 813 216.79999999999998" fill="#f9fdfe"/><g transform="translate(813,162.6) scale(2.71) rotate(0)"><path d="M10 0H20V10L10 20H0V10L10 0Z" fill="#edfafc"/></g><g transform="translate(921.4,162.6) scale(2.71) rotate(0)"><path d="M10 0H20L0 20V10L10 0Z" fill="#f992ed"/><path d="M20 10V20H10L20 10Z" fill="#f992ed"/></g><rect x="975.6" y="162.60000000000002" width="54.2" height="54.2" fill="#ffffff"/><g transform="translate(975.6,189.7) scale(1.355) rotate(0)"><path d="M10 0H20L0 20V10L10 0Z" fill="#f77ce9"/><path d="M20 10V20H10L20 10Z" fill="#f77ce9"/></g><rect x="271" y="216.8" width="54.2" height="54.2" fill="#ffffff"/><rect x="271" y="216.8" width="27.1" height="27.1" fill="#c1edf5"/><rect x="271" y="243.9" width="27.1" height="27.1" fill="#d1f1f8"/><path d="M 298.1 243.9 A 27.1 27.1 0 0 1  325.20000000000005 271 L 298.1 243.9 A 27.1 27.1 0 0 0 325.20000000000005 271" fill="#fde2fa"/><g transform="translate(325.2,216.8) scale(2.71) rotate(0)"><path d="M10 0H20L0 20V10L10 0Z" fill="#fff7fe"/><path d="M20 10V20H10L20 10Z" fill="#fff7fe"/></g><g transform="translate(379.4,216.8) scale(2.71) rotate(0)"><path d="M10 0H20V10L10 20H0V10L10 0Z" fill="#45c8e2"/></g><g transform="translate(433.6,216.8) scale(2.71) rotate(0)"><path d="M10 0H20L0 20V10L10 0Z" fill="#b7eaf4"/><path d="M20 10V20H10L20 10Z" fill="#b7eaf4"/></g><rect x="487.8" y="216.8" width="54.2" height="54.2" fill="#ffffff"/><g transform="translate(487.8,216.8) scale(1.355) rotate(0)"><path d="M10 0H20L0 20V10L10 0Z" fill="#57cee5"/><path d="M20 10V20H10L20 10Z" fill="#57cee5"/></g><path d="M 514.9 216.8 A 27.1 27.1 0 0 1  542 243.9 L 514.9 216.8 A 27.1 27.1 0 0 0 542 243.9" fill="#e3f7fb"/><path d="M 487.8 243.9 A 27.1 27.1 0 0 1 514.9 271 L 487.8 271" fill="#f7fdfe"/><g transform="translate(514.9,243.9) scale(1.355) rotate(0)"><path d="M10 0H20V10L10 20H0V10L10 0Z" fill="#5ed0e6"/></g><path d="M 542 271 A 54.2 54.2 0 0 1  596.2 216.8 L 542 271 A 54.2 54.2 0 0 0 596.2 216.8" fill="#fde1fa"/><path d="M 596.2 271 A 54.2 54.2 0 0 1  650.4000000000001 216.8 L 596.2 271 A 54.2 54.2 0 0 0 650.4000000000001 216.8" fill="#fdd5f8"/><rect x="650.4000000000001" y="216.8" width="54.2" height="54.2" fill="#ffffff"/><path d="M 650.4 216.8 A 27.1 27.1 0 0 0 677.5 243.9 L 677.5 216.8" fill="#46c9e3"/><g transform="translate(677.5,216.8) scale(1.355) rotate(0)"><path d="M10 0H20V10L10 20H0V10L10 0Z" fill="#78d7ea"/></g><g transform="translate(650.4,243.9) scale(1.355) rotate(0)"><path d="M10 0H20L0 20V10L10 0Z" fill="#f662e5"/><path d="M20 10V20H10L20 10Z" fill="#f662e5"/></g><path d="M 677.5 243.9 A 27.1 27.1 0 0 1  704.6 271 L 677.5 243.9 A 27.1 27.1 0 0 0 704.6 271" fill="#72d6e9"/><rect x="704.6" y="216.8" width="54.2" height="54.2" fill="#ffffff"/><g transform="translate(704.6,216.8) scale(1.355) rotate(0)"><path d="M10 0H20L0 20V10L10 0Z" fill="#6fd5e9"/><path d="M20 10V20H10L20 10Z" fill="#6fd5e9"/></g><g transform="translate(731.7,216.8) scale(1.355) rotate(0)"><path d="M10 0H20V10L10 20H0V10L10 0Z" fill="#faaff2"/></g><g transform="translate(704.6,243.9) scale(1.355) rotate(0)"><path d="M10 0H20L0 20V10L10 0Z" fill="#31c2df"/><path d="M20 10V20H10L20 10Z" fill="#31c2df"/></g><g transform="translate(731.7,243.9) scale(1.355) rotate(0)"><path d="M10 0H20L0 20V10L10 0Z" fill="#5bcfe6"/><path d="M20 10V20H10L20 10Z" fill="#5bcfe6"/></g><g transform="translate(758.8,216.8) scale(2.71) rotate(0)"><path d="M10 0H20L0 20V10L10 0Z" fill="#f66fe7"/><path d="M20 10V20H10L20 10Z" fill="#f66fe7"/></g><path d="M 867.2 216.8 A 54.2 54.2 0 0 1  921.4000000000001 271 L 867.2 216.8 A 54.2 54.2 0 0 0 921.4000000000001 271" fill="#50cce4"/><g transform="translate(162.6,271) scale(2.71) rotate(0)"><path d="M10 0H20V10L10 20H0V10L10 0Z" fill="#fbb4f3"/></g><path d="M 271 271 A 54.2 54.2 0 0 1 325.2 325.2 L 271 325.2" fill="#3dc6e1"/><path d="M 325.2 325.2 A 54.2 54.2 0 0 1  379.4 271 L 379.4 325.2" fill="#fcc8f6"/><rect x="379.40000000000003" y="271" width="54.2" height="54.2" fill="#ffffff"/><g transform="translate(379.4,271) scale(1.355) rotate(0)"><path d="M10 0H20V10L10 20H0V10L10 0Z" fill="#3cc6e1"/></g><g transform="translate(406.5,271) scale(1.355) rotate(0)"><path d="M10 0H20V10L10 20H0V10L10 0Z" fill="#faa5f0"/></g><path d="M 406.5 298.1 A 27.1 27.1 0 0 1  433.6 325.20000000000005 L 406.5 298.1 A 27.1 27.1 0 0 0 433.6 325.20000000000005" fill="#5ed0e6"/><path d="M 433.6 325.2 A 54.2 54.2 0 0 1  487.8 271 L 433.6 325.2 A 54.2 54.2 0 0 0 487.8 271" fill="#d9f4f9"/><rect x="542" y="271" width="54.2" height="54.2" fill="#ffffff"/><path d="M 569.1 271 A 27.1 27.1 0 0 1  596.2 298.1 L 569.1 271 A 27.1 27.1 0 0 0 596.2 298.1" fill="#f885eb"/><g transform="translate(569.1,298.1) scale(1.355) rotate(0)"><path d="M10 0H20V10L10 20H0V10L10 0Z" fill="#fef1fd"/></g><rect x="650.4000000000001" y="271" width="54.2" height="54.2" fill="#ffffff"/><path d="M 650.4 298.1 A 27.1 27.1 0 0 1  677.5 271 L 650.4 298.1 A 27.1 27.1 0 0 0 677.5 271" fill="#fbfefe"/><path d="M 650.4 325.20000000000005 A 27.1 27.1 0 0 1  677.5 298.1 L 650.4 325.20000000000005 A 27.1 27.1 0 0 0 677.5 298.1" fill="#f77ce9"/><g transform="translate(813,271) scale(2.71) rotate(0)"><path d="M10 0H20V10L10 20H0V10L10 0Z" fill="#b5e9f4"/></g><path d="M 921.4 325.2 A 54.2 54.2 0 0 1  975.6 271 L 921.4 325.2 A 54.2 54.2 0 0 0 975.6 271" fill="#f887eb"/><rect x="975.6" y="271" width="54.2" height="54.2" fill="#f55ce4"/><g transform="translate(271,325.2) scale(2.71) rotate(0)"><path d="M10 0H20L0 20V10L10 0Z" fill="#a4e4f1"/><path d="M20 10V20H10L20 10Z" fill="#a4e4f1"/></g><g transform="translate(379.4,325.2) scale(2.71) rotate(0)"><path d="M10 0H20L0 20V10L10 0Z" fill="#fffeff"/><path d="M20 10V20H10L20 10Z" fill="#fffeff"/></g><path d="M 542 379.4 A 54.2 54.2 0 0 0 596.2 325.2 L 542 325.2" fill="#f77be9"/><g transform="translate(758.8,325.2) scale(2.71) rotate(0)"><path d="M10 0H20L0 20V10L10 0Z" fill="#f5fcfd"/><path d="M20 10V20H10L20 10Z" fill="#f5fcfd"/></g><path d="M 867.2 379.4 A 54.2 54.2 0 0 1  921.4000000000001 325.2 L 867.2 379.4 A 54.2 54.2 0 0 0 921.4000000000001 325.2" fill="#f1fbfd"/></g></svg>